<svg width="26" height="21" viewBox="0 0 26 21" fill="none" xmlns="http://www.w3.org/2000/svg">
<path fill-rule="evenodd" clip-rule="evenodd" d="M12.868 12.8157L12.9998 12.8157L13.2944 12.8167C15.5468 12.8316 20.694 13.0591 20.694 16.5478C20.694 20.0137 15.7262 20.2397 13.3296 20.2545L12.4416 20.2545C10.1891 20.2397 5.04086 20.0124 5.04086 16.528C5.04086 13.0578 10.1891 12.8315 12.4416 12.8167L12.7363 12.8157C12.782 12.8157 12.826 12.8157 12.868 12.8157ZM12.868 14.5657C10.096 14.5657 6.79086 14.9063 6.79086 16.528C6.79086 18.113 9.89875 18.4835 12.6147 18.5045L12.868 18.5055C15.64 18.5055 18.944 18.166 18.944 16.5478C18.944 14.9099 15.64 14.5657 12.868 14.5657ZM22.1472 12.3422C24.9741 12.7657 25.5679 14.0934 25.5679 15.1329C25.5679 15.7676 25.3182 16.9261 23.6499 17.5619C23.5472 17.6004 23.4422 17.6191 23.3384 17.6191C22.9861 17.6191 22.6536 17.4044 22.5206 17.0556C22.3479 16.6041 22.5754 16.0978 23.0269 15.9263C23.8179 15.6252 23.8179 15.2927 23.8179 15.1329C23.8179 14.6219 23.1681 14.2649 21.8871 14.0736C21.4099 14.0012 21.0797 13.5567 21.1509 13.0772C21.2221 12.5989 21.6654 12.2804 22.1472 12.3422ZM4.58399 13.0772C4.65516 13.5567 4.32499 14.0012 3.84783 14.0736C2.56683 14.2649 1.91699 14.6219 1.91699 15.1329C1.91699 15.2927 1.91699 15.6241 2.70916 15.9263C3.16066 16.0978 3.38816 16.6041 3.21549 17.0556C3.08249 17.4044 2.74999 17.6191 2.39766 17.6191C2.29383 17.6191 2.18883 17.6004 2.08616 17.5619C0.416659 16.9249 0.166992 15.7664 0.166992 15.1329C0.166992 14.0946 0.760826 12.7657 3.58883 12.3422C4.07066 12.2816 4.51166 12.5989 4.58399 13.0772ZM12.868 0.666016C15.808 0.666016 18.1985 3.05768 18.1985 5.99652C18.1985 8.93535 15.808 11.327 12.868 11.327H12.8365C11.4132 11.3223 10.0797 10.7647 9.08103 9.75668C8.08003 8.74985 7.53286 7.41285 7.53865 5.99302C7.53865 3.05768 9.92919 0.666016 12.868 0.666016ZM12.868 2.41602C10.894 2.41602 9.28867 4.02252 9.28867 5.99652C9.28519 6.95318 9.65153 7.84802 10.3224 8.52352C10.9932 9.19902 11.8869 9.57352 12.8389 9.57702L12.868 10.452V9.57702C14.842 9.57702 16.4485 7.97168 16.4485 5.99652C16.4485 4.02252 14.842 2.41602 12.868 2.41602ZM20.0885 1.80877C22.1395 2.14593 23.6294 3.9006 23.6294 5.98077C23.6247 8.07493 22.0602 9.8716 19.9894 10.1621C19.9485 10.1679 19.9077 10.1703 19.868 10.1703C19.4387 10.1703 19.0642 9.8541 19.0024 9.4166C18.9359 8.9371 19.2684 8.49493 19.7479 8.42843C20.9612 8.2581 21.877 7.20577 21.8794 5.97843C21.8794 4.7616 21.0067 3.7326 19.8039 3.53543C19.3279 3.45727 19.0047 3.00693 19.0829 2.52977C19.1622 2.0526 19.609 1.73293 20.0885 1.80877ZM6.65319 2.52977C6.73136 3.00693 6.40819 3.45727 5.93219 3.53543C4.72936 3.7326 3.85669 4.7616 3.85669 5.98077C3.85903 7.20577 4.77486 8.25927 5.98703 8.42843C6.46653 8.49493 6.79903 8.9371 6.73253 9.4166C6.67069 9.8541 6.29619 10.1703 5.86686 10.1703C5.82719 10.1703 5.78636 10.1679 5.74553 10.1621C3.67469 9.8716 2.11136 8.07493 2.10669 5.9831C2.10669 3.9006 3.59653 2.14593 5.64753 1.80877C6.13869 1.73177 6.57386 2.05493 6.65319 2.52977Z" fill="black" fill-opacity="0.6"/>
</svg>
