<svg width="20" height="20" viewBox="0 0 20 20" fill="none" xmlns="http://www.w3.org/2000/svg">
<path d="M13.8507 2.49158C13.754 2.39457 13.639 2.3176 13.5125 2.26509C13.3859 2.21258 13.2502 2.18555 13.1132 2.18555C12.9762 2.18555 12.8405 2.21258 12.714 2.26509C12.5874 2.3176 12.4725 2.39457 12.3757 2.49158L5.45073 9.41657C5.37348 9.49367 5.31219 9.58524 5.27037 9.68605C5.22856 9.78686 5.20703 9.89493 5.20703 10.0041C5.20703 10.1132 5.22856 10.2213 5.27037 10.3221C5.31219 10.4229 5.37348 10.5145 5.45073 10.5916L12.3757 17.5166C12.7841 17.9249 13.4424 17.9249 13.8507 17.5166C14.2591 17.1082 14.2591 16.4499 13.8507 16.0416L7.8174 9.99991L13.8591 3.95824C14.2591 3.55824 14.2591 2.89158 13.8507 2.49158Z" fill="#979191" stroke="#979191" stroke-width="0.2"/>
</svg>
