<svg width="21" height="21" viewBox="0 0 21 21" fill="none" xmlns="http://www.w3.org/2000/svg">
<path fill-rule="evenodd" clip-rule="evenodd" d="M17.9008 10.6128C17.9008 10.0578 17.8512 9.52422 17.7589 9.01196H10.4075V12.0392H14.6083C14.4274 13.0175 13.8774 13.8463 13.0507 14.4013V16.3649H15.5734C17.0493 15.0025 17.9008 12.9962 17.9008 10.6128Z" fill="#293BFF"/>
<path fill-rule="evenodd" clip-rule="evenodd" d="M10.4075 18.2608C12.515 18.2608 14.2819 17.56 15.5734 16.3647L13.0508 14.4011C12.3518 14.8706 11.4577 15.1481 10.4075 15.1481C8.37449 15.1481 6.65371 13.7714 6.03991 11.9216H3.43213V13.9493C4.7165 16.507 7.35622 18.2608 10.4075 18.2608Z" fill="#34A853"/>
<path fill-rule="evenodd" clip-rule="evenodd" d="M6.03982 11.9217C5.88371 11.4522 5.79501 10.9506 5.79501 10.4348C5.79501 9.91898 5.88371 9.4174 6.03982 8.94783V6.92017H3.43204C2.90339 7.97669 2.60181 9.17194 2.60181 10.4348C2.60181 11.6976 2.90339 12.8929 3.43204 13.9494L6.03982 11.9217Z" fill="#FBBC05"/>
<path fill-rule="evenodd" clip-rule="evenodd" d="M10.4075 5.72129C11.5535 5.72129 12.5824 6.11615 13.3914 6.89165L15.6301 4.64698C14.2784 3.38414 12.5115 2.60864 10.4075 2.60864C7.35622 2.60864 4.7165 4.3624 3.43213 6.9201L6.03991 8.94777C6.65371 7.09797 8.37449 5.72129 10.4075 5.72129Z" fill="#EA4335"/>
</svg>
