<svg width="24" height="24" viewBox="0 0 24 24" fill="none" xmlns="http://www.w3.org/2000/svg">
<path d="M8.65708 22.2362V18.6689C8.65708 17.7582 9.4007 17.02 10.318 17.02H13.6712C14.1117 17.02 14.5342 17.1937 14.8457 17.503C15.1572 17.8122 15.3321 18.2316 15.3321 18.6689V22.2362C15.3294 22.6148 15.4789 22.9788 15.7476 23.2475C16.0163 23.5162 16.3819 23.6673 16.7633 23.6673H19.051C20.1194 23.6701 21.145 23.2506 21.9015 22.5016C22.658 21.7526 23.0832 20.7355 23.0832 19.6748V9.51199C23.0832 8.65519 22.7006 7.84247 22.0386 7.29277L14.2562 1.1225C12.9024 0.0406396 10.9628 0.0755701 9.64946 1.20546L2.04468 7.29277C1.35137 7.82626 0.936982 8.64139 0.916504 9.51199V19.6644C0.916504 21.8751 2.72178 23.6673 4.94871 23.6673H7.18418C7.97627 23.6673 8.62 23.0329 8.62574 22.2466L8.65708 22.2362Z" fill="#293BFF"/>
</svg>
