<svg width="1600" height="1600" viewBox="0 0 1600 1600" fill="none" xmlns="http://www.w3.org/2000/svg">
<g filter="url(#filter0_d_2230_678)">
<path d="M1181.95 548.562C911.044 723.383 770.457 830.302 622.102 1041.32C603.046 1068.43 563.429 1071.2 541.686 1046.2L434.085 922.472C432.364 920.494 430.778 918.353 429.403 916.12C374.922 827.634 371.809 769.059 426.001 686.98C427.961 684.011 430.33 681.232 432.904 678.775C573.815 544.266 658.801 453.494 877.915 311.466C880.921 309.518 884.2 307.846 887.574 306.642C924.321 293.532 945.908 293.728 979.328 305.332C982.437 306.412 985.446 307.881 988.253 309.599C1083.39 367.834 1145.21 411.26 1196.33 482.179C1212.03 503.961 1204.51 534.003 1181.95 548.562Z" fill="#526EFF"/>
<path d="M826 1271C746.434 1230.89 699.169 1198.86 634.192 1142.18C615.302 1125.7 612.144 1097.56 626.582 1077.07C688.512 989.176 735.088 930.156 807.56 853.017C826.224 833.151 857.403 832.539 877.813 850.607C976.053 937.572 1046.53 976.447 1169 1018C1203.48 1034 1212.23 1049.24 1199.97 1089.36C1199.03 1092.45 1197.7 1095.44 1196.1 1098.25C1159.85 1162.21 1132.18 1196.36 1069 1249.5C979.813 1316.18 926.529 1320 826 1271Z" fill="#526EFF"/>
<path d="M1181.95 548.562C911.044 723.383 770.457 830.302 622.102 1041.32C603.046 1068.43 563.429 1071.2 541.686 1046.2L434.085 922.472C432.364 920.494 430.778 918.353 429.403 916.12C374.922 827.634 371.809 769.059 426.001 686.98C427.961 684.011 430.33 681.232 432.904 678.775C573.815 544.266 658.801 453.494 877.915 311.466C880.921 309.518 884.2 307.846 887.574 306.642C924.321 293.532 945.908 293.728 979.328 305.332C982.437 306.412 985.446 307.881 988.253 309.599C1083.39 367.834 1145.21 411.26 1196.33 482.179C1212.03 503.961 1204.51 534.003 1181.95 548.562Z" stroke="#526EFF"/>
<path d="M826 1271C746.434 1230.89 699.169 1198.86 634.192 1142.18C615.302 1125.7 612.144 1097.56 626.582 1077.07C688.512 989.176 735.088 930.156 807.56 853.017C826.224 833.151 857.403 832.539 877.813 850.607C976.053 937.572 1046.53 976.447 1169 1018C1203.48 1034 1212.23 1049.24 1199.97 1089.36C1199.03 1092.45 1197.7 1095.44 1196.1 1098.25C1159.85 1162.21 1132.18 1196.36 1069 1249.5C979.813 1316.18 926.529 1320 826 1271Z" stroke="#526EFF"/>
</g>
<defs>
<filter id="filter0_d_2230_678" x="382.413" y="296.215" width="827.312" height="1016.43" filterUnits="userSpaceOnUse" color-interpolation-filters="sRGB">
<feFlood flood-opacity="0" result="BackgroundImageFix"/>
<feColorMatrix in="SourceAlpha" type="matrix" values="0 0 0 0 0 0 0 0 0 0 0 0 0 0 0 0 0 0 127 0" result="hardAlpha"/>
<feOffset dy="4"/>
<feGaussianBlur stdDeviation="2"/>
<feComposite in2="hardAlpha" operator="out"/>
<feColorMatrix type="matrix" values="0 0 0 0 0 0 0 0 0 0 0 0 0 0 0 0 0 0 0.25 0"/>
<feBlend mode="normal" in2="BackgroundImageFix" result="effect1_dropShadow_2230_678"/>
<feBlend mode="normal" in="SourceGraphic" in2="effect1_dropShadow_2230_678" result="shape"/>
</filter>
</defs>
</svg>
