<svg width="27" height="29" viewBox="0 0 27 29" fill="none" xmlns="http://www.w3.org/2000/svg">
<g clip-path="url(#clip0_1047_2696)">
<path d="M8.90228 0.87331L0.954374 10.2458C0.630752 10.6274 0 10.4019 0 9.90456V0.53211C0 0.238234 0.241767 0 0.54 0H8.48791C8.94607 0 9.19606 0.526863 8.90228 0.87331Z" fill="#293BFF"/>
<path d="M8.90228 27.9883L0.954374 18.6158C0.630752 18.2342 0 18.4597 0 18.957V28.3293C0 28.6233 0.241767 28.8614 0.54 28.8614H8.48791C8.94607 28.8614 9.19606 28.3347 8.90228 27.9883Z" fill="#293BFF"/>
<path d="M6.50417 21.1975C6.71963 21.429 7.09061 21.4272 7.30372 21.1936L25.83 0.88786C26.1424 0.545373 25.8958 0 25.4284 0H13.32L0 14.2091L6.50417 21.1975Z" fill="#293BFF"/>
<path d="M26.0534 27.8549C26.3544 28.2 26.1056 28.7339 25.6439 28.7339H13.5627C13.4084 28.7339 13.2614 28.669 13.1589 28.5552L7.44385 22.2156L13.9948 14.9549C14.212 14.7142 14.5948 14.7173 14.8079 14.9616L26.0534 27.8549Z" fill="#293BFF"/>
</g>
<defs>
<clipPath id="clip0_1047_2696">
<rect width="27" height="29" fill="white"/>
</clipPath>
</defs>
</svg>
